<svg width="328" height="118" viewBox="0 0 328 118" fill="none" xmlns="http://www.w3.org/2000/svg">
<g clip-path="url(#clip0_18_56)">
<path d="M19 96C19 62.2216 31.2476 28.4434 66.792 22.1574C73.5596 20.9606 79.2372 26.7918 76.1248 32.7724C70.6692 43.2557 59.8444 50.2384 59.8444 50.2384L61.374 51.3484C65.61 54.4224 67.368 59.8192 64.4112 64.0852C58.8676 72.0832 46.6508 83.5196 22.1134 83.5196" fill="white"/>
<path d="M19 96C19 62.2216 31.2476 28.4434 66.792 22.1574C73.5596 20.9606 79.2372 26.7918 76.1248 32.7724C70.6692 43.2557 59.8444 50.2384 59.8444 50.2384L61.374 51.3484C65.61 54.4224 67.368 59.8192 64.4112 64.0852C58.8676 72.0832 46.6508 83.5196 22.1134 83.5196" stroke="white" stroke-width="6" stroke-linecap="round" stroke-linejoin="round"/>
<path d="M128.926 77.648C125.218 77.648 122.014 76.838 119.314 75.218C116.614 73.562 114.526 71.276 113.05 68.36C111.61 65.408 110.89 61.988 110.89 58.1C110.89 54.212 111.61 50.81 113.05 47.894C114.526 44.942 116.614 42.656 119.314 41.036C122.014 39.38 125.218 38.552 128.926 38.552C133.282 38.552 136.81 39.578 139.51 41.63C142.21 43.682 143.938 46.58 144.694 50.324H139.672C139.096 47.984 137.926 46.112 136.162 44.708C134.398 43.304 131.986 42.602 128.926 42.602C126.226 42.602 123.868 43.232 121.852 44.492C119.836 45.716 118.27 47.498 117.154 49.838C116.074 52.142 115.534 54.896 115.534 58.1C115.534 61.304 116.074 64.076 117.154 66.416C118.27 68.72 119.836 70.502 121.852 71.762C123.868 72.986 126.226 73.598 128.926 73.598C131.986 73.598 134.416 72.914 136.216 71.546C138.052 70.142 139.258 68.306 139.834 66.038H144.694C143.938 69.674 142.21 72.518 139.51 74.57C136.81 76.622 133.282 77.648 128.926 77.648ZM149.03 77V39.2H153.566V77H149.03ZM170.512 77.648C167.956 77.648 165.688 77.072 163.708 75.92C161.728 74.732 160.162 73.094 159.01 71.006C157.894 68.882 157.336 66.416 157.336 63.608C157.336 60.764 157.894 58.298 159.01 56.21C160.126 54.122 161.674 52.502 163.654 51.35C165.67 50.162 167.992 49.568 170.62 49.568C173.248 49.568 175.498 50.162 177.37 51.35C179.242 52.502 180.682 54.032 181.69 55.94C182.698 57.812 183.202 59.864 183.202 62.096C183.202 62.456 183.202 62.852 183.202 63.284C183.202 63.68 183.184 64.13 183.148 64.634H160.738V61.124H178.72C178.612 58.568 177.784 56.588 176.236 55.184C174.724 53.78 172.816 53.078 170.512 53.078C168.964 53.078 167.524 53.42 166.192 54.104C164.86 54.788 163.78 55.814 162.952 57.182C162.16 58.55 161.764 60.278 161.764 62.366V63.878C161.764 66.11 162.178 67.964 163.006 69.44C163.834 70.916 164.914 72.032 166.246 72.788C167.614 73.508 169.036 73.868 170.512 73.868C172.384 73.868 173.95 73.436 175.21 72.572C176.47 71.708 177.388 70.52 177.964 69.008H182.446C181.978 70.664 181.204 72.14 180.124 73.436C179.044 74.732 177.694 75.758 176.074 76.514C174.49 77.27 172.636 77.648 170.512 77.648ZM195.537 77.648C193.413 77.648 191.631 77.27 190.191 76.514C188.751 75.758 187.671 74.75 186.951 73.49C186.267 72.23 185.925 70.862 185.925 69.386C185.925 67.55 186.393 66.002 187.329 64.742C188.301 63.482 189.651 62.528 191.379 61.88C193.143 61.196 195.213 60.854 197.589 60.854H204.825C204.825 59.09 204.555 57.632 204.015 56.48C203.475 55.328 202.701 54.482 201.693 53.942C200.685 53.366 199.479 53.078 198.075 53.078C196.311 53.078 194.781 53.528 193.485 54.428C192.189 55.328 191.397 56.714 191.109 58.586H186.465C186.681 56.642 187.311 55.004 188.355 53.672C189.435 52.34 190.803 51.332 192.459 50.648C194.151 49.928 196.023 49.568 198.075 49.568C200.631 49.568 202.737 50.036 204.393 50.972C206.085 51.872 207.327 53.15 208.119 54.806C208.947 56.426 209.361 58.334 209.361 60.53V77H205.581L205.149 72.41H204.933C204.429 73.274 203.835 74.03 203.151 74.678C202.503 75.326 201.783 75.866 200.991 76.298C200.199 76.73 199.335 77.054 198.399 77.27C197.499 77.522 196.545 77.648 195.537 77.648ZM196.347 73.814C197.715 73.814 198.921 73.562 199.965 73.058C201.009 72.518 201.891 71.798 202.611 70.898C203.331 69.998 203.871 68.99 204.231 67.874C204.627 66.722 204.825 65.552 204.825 64.364H197.967C196.203 64.364 194.781 64.58 193.701 65.012C192.621 65.408 191.847 65.966 191.379 66.686C190.911 67.406 190.677 68.234 190.677 69.17C190.677 70.106 190.893 70.934 191.325 71.654C191.793 72.338 192.441 72.878 193.269 73.274C194.133 73.634 195.159 73.814 196.347 73.814ZM213.412 77V50.216H217.408L217.84 56.048H218.056C218.956 54.104 219.838 52.682 220.702 51.782C221.566 50.846 222.556 50.252 223.672 50C224.824 49.712 226.246 49.568 227.938 49.568V54.32H226.75C225.31 54.32 224.032 54.518 222.916 54.914C221.8 55.274 220.882 55.814 220.162 56.534C219.442 57.254 218.884 58.172 218.488 59.288C218.128 60.368 217.948 61.646 217.948 63.122V77H213.412ZM230.662 77V39.2H244.864C247.924 39.2 250.444 39.722 252.424 40.766C254.44 41.774 255.934 43.16 256.906 44.924C257.914 46.688 258.418 48.686 258.418 50.918C258.418 52.97 257.932 54.878 256.96 56.642C256.024 58.406 254.548 59.846 252.532 60.962C250.552 62.042 247.996 62.582 244.864 62.582H237.952V77H230.662ZM237.952 56.696H244.432C246.736 56.696 248.392 56.174 249.4 55.13C250.444 54.086 250.966 52.682 250.966 50.918C250.966 49.082 250.444 47.66 249.4 46.652C248.392 45.644 246.736 45.14 244.432 45.14H237.952V56.696ZM273.469 77.648C270.733 77.648 268.303 77.072 266.179 75.92C264.091 74.768 262.453 73.148 261.265 71.06C260.077 68.972 259.483 66.578 259.483 63.878C259.483 61.07 260.059 58.604 261.211 56.48C262.399 54.32 264.037 52.628 266.125 51.404C268.249 50.18 270.697 49.568 273.469 49.568C276.169 49.568 278.527 50.144 280.543 51.296C282.559 52.448 284.143 54.032 285.295 56.048C286.447 58.028 287.023 60.278 287.023 62.798C287.023 63.158 287.005 63.572 286.969 64.04C286.969 64.472 286.951 64.922 286.915 65.39H264.667V60.908H279.625C279.517 59.216 278.887 57.866 277.735 56.858C276.619 55.85 275.215 55.346 273.523 55.346C272.263 55.346 271.111 55.634 270.067 56.21C269.023 56.75 268.195 57.596 267.583 58.748C266.971 59.864 266.665 61.286 266.665 63.014V64.58C266.665 66.056 266.953 67.334 267.529 68.414C268.105 69.458 268.897 70.268 269.905 70.844C270.949 71.42 272.119 71.708 273.415 71.708C274.747 71.708 275.863 71.42 276.763 70.844C277.663 70.232 278.347 69.458 278.815 68.522H286.213C285.709 70.214 284.863 71.762 283.675 73.166C282.487 74.534 281.029 75.632 279.301 76.46C277.573 77.252 275.629 77.648 273.469 77.648ZM290.246 77V50.216H296.456L297.104 54.59H297.32C298.184 53.006 299.354 51.782 300.83 50.918C302.306 50.018 304.16 49.568 306.392 49.568C308.624 49.568 310.514 50.054 312.062 51.026C313.61 51.962 314.78 53.348 315.572 55.184C316.4 57.02 316.814 59.288 316.814 61.988V77H309.524V62.636C309.524 60.404 309.074 58.694 308.174 57.506C307.274 56.318 305.852 55.724 303.908 55.724C302.684 55.724 301.586 56.03 300.614 56.642C299.642 57.218 298.886 58.064 298.346 59.18C297.806 60.26 297.536 61.592 297.536 63.176V77H290.246Z" fill="white"/>
</g>
<defs>
<clipPath id="clip0_18_56">
<rect width="328" height="118" fill="white"/>
</clipPath>
</defs>
</svg>
