<svg width="309" height="309" viewBox="0 0 309 309" fill="none" xmlns="http://www.w3.org/2000/svg">
<g clip-path="url(#clip0_7289_4982)">
<path d="M135.896 20.9746C163.207 20.5116 190.606 20.9511 217.925 20.9365L243.343 20.9277C248.492 20.9282 254.071 20.5262 259.147 21.3799C263.167 22.0555 267.366 24.321 270.263 27.1709C273.157 30.0191 275.374 33.7859 276.178 37.7842C277.201 42.8743 276.89 48.2922 276.89 53.4629L276.883 71.959L276.931 140.282C276.941 146.553 276.806 152.771 275.8 158.975C272.076 181.938 258.84 202.991 242.603 219.234C224.27 237.574 201.821 249.54 175.876 252.242C165.883 253.283 155.792 253.057 145.758 253.068L122.772 253.073C116.47 253.073 109.545 252.501 103.415 254.124C85.3952 258.894 73.0839 285.651 55.9688 287.2C50.1493 287.726 43.8851 285.958 39.3828 282.194C34.4895 278.104 32.0591 272.429 31.54 266.169C30.9323 258.835 31.3591 251.168 31.3623 243.802L31.3887 201.969L31.3584 149.996C31.337 134.45 30.3139 118.358 33.6729 103.095C37.2113 87.0622 44.6405 72.1467 55.3047 59.665C74.434 37.1689 100.319 23.5668 129.766 21.2275C131.757 20.9608 133.884 21.0088 135.896 20.9746ZM136.965 82.7627C132.857 82.7581 128.423 82.4692 124.357 83.0283C114.889 84.2408 105.913 88.5639 99.9561 96.1953C96.7856 100.235 94.633 104.978 93.6787 110.023C92.6079 115.575 92.9239 121.423 92.9248 127.051L92.9434 148.857C92.9497 156.417 92.2416 164.784 93.1963 172.253C93.8196 177.128 96.016 181.744 99.9561 184.788C102.8 186.985 106.229 188.258 109.766 188.778C113.545 189.334 117.549 189.113 121.363 189.112L138.88 189.097L159.401 189.122C164.85 189.131 170.324 189.3 175.735 188.555C177.255 188.345 178.761 188.018 180.254 187.667C191.912 184.373 201.394 176.948 207.35 166.351C209.871 161.868 211.591 156.98 212.431 151.906C213.807 143.256 212.987 133.721 212.97 124.97C212.954 117.054 213.425 108.929 212.963 101.037C212.86 99.2872 212.633 97.5787 212.15 95.8906C210.847 91.2954 207.77 87.4084 203.597 85.0869C201.547 83.9574 199.176 83.252 196.853 83.0107C192.409 82.5482 187.696 82.8204 183.225 82.8145L158.503 82.7832L136.965 82.7627Z" fill="white"/>
</g>
<defs>
<clipPath id="clip0_7289_4982">
<rect width="308.281" height="308.281" fill="white"/>
</clipPath>
</defs>
</svg>
