<svg width="133" height="31" viewBox="0 0 133 31" fill="none" xmlns="http://www.w3.org/2000/svg">
<path d="M41.6627 30.0947C38.5143 29.985 35.9781 28.7246 34.3565 25.9598C31.5278 21.137 28.697 16.313 25.9911 11.4211C23.9548 7.74018 24.7794 3.52866 27.7917 0.877695C28.6892 0.087802 29.0003 3.84204e-05 29.0003 3.84204e-05C34.2981 8.83028 40.773 19.9834 45.9248 28.8459C45.9248 28.8459 45.6724 29.2239 44.6796 29.5492C43.6969 29.8711 42.7175 30.1444 41.6627 30.0947Z" fill="white"/>
<path d="M27.9547 30.0947C24.8063 29.985 22.2701 28.7246 20.6484 25.9598C17.8198 21.137 14.9889 16.313 12.2831 11.4211C10.2468 7.74018 11.0714 3.52866 14.0837 0.877695C14.9812 0.087802 15.2922 3.84204e-05 15.2922 3.84204e-05C20.5901 8.83028 27.065 19.9834 32.2168 28.8459C32.2168 28.8459 31.9644 29.2239 30.9716 29.5492C29.9888 29.8711 29.0095 30.1444 27.9547 30.0947Z" fill="white"/>
<path d="M9.93926 15.6086C13.6401 17.7559 14.8996 22.4969 12.7523 26.198C10.605 29.8989 5.86397 31.1584 2.1628 29.011" fill="white"/>
<mask id="mask0_2272_10714" style="mask-type:luminance" maskUnits="userSpaceOnUse" x="0" y="16" width="12" height="13">
<path d="M5.89522 16.3647C2.63933 16.3647 -9.05991e-05 19.0041 -9.05991e-05 22.26C-9.05991e-05 25.5159 2.63933 28.1553 5.89522 28.1553C9.15111 28.1553 11.7905 25.5159 11.7905 22.26C11.7905 19.0041 9.15111 16.3647 5.89522 16.3647Z" fill="white"/>
</mask>
<g mask="url(#mask0_2272_10714)">
<mask id="mask1_2272_10714" style="mask-type:luminance" maskUnits="userSpaceOnUse" x="-1" y="16" width="13" height="13">
<path d="M-0.143096 28.2979H11.9331V16.2217H-0.143096V28.2979Z" fill="white"/>
</mask>
<g mask="url(#mask1_2272_10714)">
<rect x="11.9468" y="28.3086" width="12.0905" height="12.0905" transform="rotate(180 11.9468 28.3086)" fill="white"/>
</g>
</g>
<path d="M63.3048 29.0498H58.8408V2.7338H63.3048L71.8008 23.6858L80.2968 2.7338H84.8328V29.0498H80.3688V20.9498C80.3688 19.6298 80.3688 18.5258 80.3688 17.6378C80.3688 16.7258 80.3808 15.9578 80.4048 15.3338C80.4288 14.7098 80.4528 14.1578 80.4768 13.6778C80.5008 13.1978 80.5488 12.7178 80.6208 12.2378L73.9248 29.0498H69.6768L63.0168 12.2738C63.1368 13.0658 63.2088 14.0738 63.2328 15.2978C63.2808 16.5218 63.3048 17.9618 63.3048 19.6178V29.0498ZM94.5452 2.7338V29.0498H89.9372V2.7338H94.5452ZM100.377 17.8538H93.1412V13.9658H100.125C101.397 13.9658 102.369 13.6538 103.041 13.0298C103.713 12.3818 104.049 11.4698 104.049 10.2938C104.049 9.1658 103.701 8.3018 103.005 7.7018C102.309 7.1018 101.301 6.8018 99.9812 6.8018H92.9972V2.7338H100.377C102.993 2.7338 105.045 3.3698 106.533 4.6418C108.021 5.9138 108.765 7.6538 108.765 9.8618C108.765 11.4458 108.381 12.7778 107.613 13.8578C106.845 14.9138 105.705 15.6818 104.193 16.1618V15.6578C105.825 16.0418 107.061 16.7618 107.901 17.8178C108.741 18.8738 109.161 20.2418 109.161 21.9218C109.161 23.4098 108.825 24.6938 108.153 25.7738C107.481 26.8298 106.497 27.6458 105.201 28.2218C103.929 28.7738 102.393 29.0498 100.593 29.0498H92.9972V24.9818H100.377C101.697 24.9818 102.705 24.6698 103.401 24.0458C104.097 23.4218 104.445 22.5218 104.445 21.3458C104.445 20.2418 104.085 19.3898 103.365 18.7898C102.669 18.1658 101.673 17.8538 100.377 17.8538ZM117.274 2.7338V29.0498H112.666V2.7338H117.274ZM123.07 19.9778H116.158V15.8738H122.098C123.682 15.8738 124.882 15.4778 125.698 14.6858C126.538 13.8698 126.958 12.7418 126.958 11.3018C126.958 9.8618 126.538 8.7578 125.698 7.9898C124.882 7.2218 123.706 6.8378 122.17 6.8378H115.726V2.7338H123.07C124.846 2.7338 126.382 3.0938 127.678 3.8138C128.974 4.5338 129.982 5.5418 130.702 6.8378C131.422 8.1098 131.782 9.6098 131.782 11.3378C131.782 13.0178 131.422 14.5178 130.702 15.8378C129.982 17.1338 128.974 18.1538 127.678 18.8978C126.382 19.6178 124.846 19.9778 123.07 19.9778Z" fill="white"/>
</svg>
