<svg width="1289" height="258" viewBox="0 0 1289 258" fill="none" xmlns="http://www.w3.org/2000/svg">
<g clip-path="url(#clip0_7288_4922)">
<mask id="mask0_7288_4922" style="mask-type:luminance" maskUnits="userSpaceOnUse" x="20" y="4" width="216" height="250">
<path d="M236 4H20V253.231H236V4Z" fill="white"/>
</mask>
<g mask="url(#mask0_7288_4922)">
<path d="M128.239 4.00675C133.03 3.51005 222 30.5658 234.134 33.9163C237.321 66.2023 235.705 112.503 226.007 143.577C208.89 198.43 176.805 227.214 128.713 253.089C98.727 238.468 76.8477 220.351 56.0462 194.369C59.0137 194.358 61.9788 194.175 64.9257 193.821C96.6076 189.923 124.396 171.493 143.823 146.65C158.163 127.484 168.569 104.535 188.081 89.6376C196.314 83.3513 201.063 81.3701 207.895 73.2952C156.803 79.8299 136.23 104.552 107.499 142.586C93.8485 160.657 71.3215 178.39 51.0289 187.878C28.4883 155.037 19.791 107.203 20.0038 68.1026C20.0653 56.8731 20.7038 45.7394 21.1728 34.5133C56.9615 24.6998 92.6522 14.531 128.239 4.00675Z" fill="#E8E8E8"/>
</g>
</g>
<path d="M347.897 197.624C336.872 197.624 327.35 195.494 319.331 191.234C311.438 186.975 305.362 180.773 301.102 172.629C296.842 164.36 294.712 154.462 294.712 142.936L318.016 141.057C317.64 153.46 320.146 162.857 325.533 169.246C330.92 175.636 338.375 178.831 347.897 178.831C356.291 178.831 362.618 176.826 366.878 172.817C371.138 168.683 373.268 163.546 373.268 157.407C373.268 152.52 372.14 148.511 369.885 145.379C367.755 142.247 364.372 139.741 359.737 137.862C355.101 135.857 348.523 133.978 340.004 132.224C330.983 130.219 323.528 127.463 317.64 123.955C311.751 120.447 307.304 116.249 304.297 111.363C301.29 106.477 299.786 100.964 299.786 94.8252C299.786 88.3102 301.603 82.4217 305.236 77.1596C308.87 71.8975 313.944 67.7629 320.459 64.756C327.099 61.6238 334.804 60.0577 343.575 60.0577C358.233 60.0577 369.572 63.6284 377.59 70.7699C385.734 77.786 389.806 87.809 389.806 100.839L366.502 102.718C366.502 94.8252 364.372 88.874 360.113 84.8648C355.978 80.8555 350.465 78.8509 343.575 78.8509C337.31 78.8509 332.361 80.2291 328.728 82.9854C325.095 85.7418 323.278 89.6884 323.278 94.8252C323.278 98.3333 324.03 101.278 325.533 103.658C327.162 105.913 329.793 107.918 333.426 109.672C337.06 111.426 342.134 112.992 348.649 114.37C358.672 116.625 367.129 119.382 374.02 122.639C380.91 125.771 386.36 130.094 390.37 135.606C394.504 140.994 396.571 147.885 396.571 156.279C396.571 164.423 394.567 171.627 390.558 177.891C386.548 184.156 380.848 189.042 373.456 192.55C366.189 195.933 357.669 197.624 347.897 197.624ZM458.912 197.624C450.894 197.624 443.314 195.87 436.172 192.362C429.156 188.854 423.455 183.404 419.07 176.012C414.685 168.495 412.493 159.223 412.493 148.198C412.493 137.047 414.685 127.713 419.07 120.196C423.455 112.553 429.219 106.915 436.36 103.282C443.502 99.5235 451.019 97.6442 458.912 97.6442C466.68 97.6442 473.821 99.4608 480.336 103.094C486.977 106.728 492.239 112.366 496.123 120.008C500.132 127.525 502.136 136.922 502.136 148.198V152.708H435.796C435.796 157.97 436.673 162.606 438.427 166.615C440.181 170.499 442.813 173.506 446.321 175.636C449.829 177.766 454.026 178.831 458.912 178.831C465.552 178.831 470.376 177.453 473.383 174.696C476.39 171.94 478.332 168.745 479.209 165.112L501.949 166.991C501.447 173.13 499.192 178.518 495.183 183.153C491.174 187.789 485.974 191.36 479.585 193.865C473.32 196.371 466.429 197.624 458.912 197.624ZM480.524 137.298C480.524 133.79 479.71 130.47 478.081 127.337C476.578 124.08 474.197 121.449 470.94 119.444C467.682 117.44 463.673 116.437 458.912 116.437C454.151 116.437 450.017 117.44 446.509 119.444C443 121.449 440.307 124.08 438.427 127.337C436.673 130.47 435.796 133.79 435.796 137.298H480.524ZM565.38 197.624C556.986 197.624 549.155 195.807 541.888 192.174C534.747 188.541 528.984 183.028 524.599 175.636C520.214 168.119 518.021 158.973 518.021 148.198C518.021 137.173 520.214 127.901 524.599 120.384C528.984 112.741 534.81 107.041 542.076 103.282C549.343 99.5235 557.111 97.6442 565.38 97.6442C577.909 97.6442 588.057 100.588 595.825 106.477C603.593 112.24 608.354 122.013 610.108 135.794L586.992 137.674C585.489 130.407 583.108 125.082 579.851 121.699C576.593 118.191 571.77 116.437 565.38 116.437C557.737 116.437 551.786 119.382 547.526 125.27C543.392 131.033 541.325 138.613 541.325 148.01C541.325 157.657 543.329 165.237 547.339 170.75C551.473 176.137 557.487 178.831 565.38 178.831C571.394 178.831 576.092 177.265 579.475 174.133C582.983 171 585.489 165.864 586.992 158.722L610.108 160.601C608.479 174.133 603.781 183.717 596.013 189.355C588.245 194.868 578.034 197.624 565.38 197.624ZM659.387 197.624C650.116 197.624 642.849 194.617 637.587 188.603C632.325 182.59 629.694 173.882 629.694 162.481V100.651H652.998V160.414C652.998 167.555 654.438 172.441 657.32 175.072C660.202 177.578 663.96 178.831 668.596 178.831C674.86 178.831 679.997 176.2 684.006 170.938C688.016 165.55 690.02 157.156 690.02 145.755L693.591 155.527C693.591 164.047 692.338 171.502 689.832 177.891C687.326 184.156 683.505 189.042 678.368 192.55C673.232 195.933 666.905 197.624 659.387 197.624ZM690.02 100.651H713.324V194.617H690.02V100.651ZM738.526 100.651H761.829V136.17L758.822 139.929C758.822 131.033 760.013 123.641 762.393 117.753C764.899 111.864 768.219 107.542 772.354 104.786C776.488 102.029 781.186 100.651 786.449 100.651H798.852V119.444H782.69C777.678 119.444 773.606 120.635 770.474 123.015C767.467 125.27 765.275 128.778 763.897 133.539C762.518 138.175 761.829 144.439 761.829 152.332V194.617H738.526V100.651ZM851.661 197.624C843.643 197.624 836.063 195.87 828.921 192.362C821.905 188.854 816.204 183.404 811.819 176.012C807.434 168.495 805.242 159.223 805.242 148.198C805.242 137.047 807.434 127.713 811.819 120.196C816.204 112.553 821.968 106.915 829.109 103.282C836.251 99.5235 843.768 97.6442 851.661 97.6442C859.429 97.6442 866.57 99.4608 873.085 103.094C879.725 106.728 884.988 112.366 888.872 120.008C892.881 127.525 894.885 136.922 894.885 148.198V152.708H828.545C828.545 157.97 829.422 162.606 831.176 166.615C832.93 170.499 835.561 173.506 839.069 175.636C842.578 177.766 846.775 178.831 851.661 178.831C858.301 178.831 863.125 177.453 866.132 174.696C869.139 171.94 871.081 168.745 871.958 165.112L894.697 166.991C894.196 173.13 891.941 178.518 887.932 183.153C883.923 187.789 878.723 191.36 872.333 193.865C866.069 196.371 859.178 197.624 851.661 197.624ZM873.273 137.298C873.273 133.79 872.459 130.47 870.83 127.337C869.327 124.08 866.946 121.449 863.689 119.444C860.431 117.44 856.422 116.437 851.661 116.437C846.9 116.437 842.765 117.44 839.257 119.444C835.749 121.449 833.056 124.08 831.176 127.337C829.422 130.47 828.545 133.79 828.545 137.298H873.273ZM918.243 63.0646H941.547V194.617H918.243V63.0646ZM931.023 117.001H993.04V135.606H931.023V117.001ZM931.023 63.0646H1002.44V81.8579H931.023V63.0646ZM1027.44 61.1853H1050.75V194.617H1027.44V61.1853ZM1118.69 197.624C1110.68 197.624 1103.1 195.87 1095.95 192.362C1088.94 188.854 1083.24 183.404 1078.85 176.012C1074.47 168.495 1072.27 159.223 1072.27 148.198C1072.27 137.047 1074.47 127.713 1078.85 120.196C1083.24 112.553 1089 106.915 1096.14 103.282C1103.28 99.5235 1110.8 97.6442 1118.69 97.6442C1126.46 97.6442 1133.6 99.4608 1140.12 103.094C1146.76 106.728 1152.02 112.366 1155.9 120.008C1159.91 127.525 1161.92 136.922 1161.92 148.198V152.708H1095.58C1095.58 157.97 1096.45 162.606 1098.21 166.615C1099.96 170.499 1102.59 173.506 1106.1 175.636C1109.61 177.766 1113.81 178.831 1118.69 178.831C1125.33 178.831 1130.16 177.453 1133.16 174.696C1136.17 171.94 1138.11 168.745 1138.99 165.112L1161.73 166.991C1161.23 173.13 1158.97 178.518 1154.96 183.153C1150.96 187.789 1145.76 191.36 1139.37 193.865C1133.1 196.371 1126.21 197.624 1118.69 197.624ZM1140.31 137.298C1140.31 133.79 1139.49 130.47 1137.86 127.337C1136.36 124.08 1133.98 121.449 1130.72 119.444C1127.46 117.44 1123.45 116.437 1118.69 116.437C1113.93 116.437 1109.8 117.44 1106.29 119.444C1102.78 121.449 1100.09 124.08 1098.21 127.337C1096.45 130.47 1095.58 133.79 1095.58 137.298H1140.31ZM1171.27 100.651H1197.02L1264.86 194.617H1239.11L1171.27 100.651ZM1238.17 100.651H1263.92L1196.08 194.617H1170.33L1238.17 100.651Z" fill="white"/>
<defs>
<clipPath id="clip0_7288_4922">
<rect width="216" height="249.231" fill="white" transform="translate(20 4)"/>
</clipPath>
</defs>
</svg>
