<svg width="1636" height="388" viewBox="0 0 1636 388" fill="none" xmlns="http://www.w3.org/2000/svg">
<path d="M174.903 18C175.922 21.359 175.877 25.9142 176.214 29.4328L178.63 54.5373L185.308 122.437C186.546 135.028 187.606 147.669 189.084 160.232C201.572 152.509 213.769 144.138 225.938 135.919C231.647 132.063 237.298 127.88 243.222 124.375C239.546 130.004 235.463 135.424 231.626 140.949C222.967 153.425 214.383 165.955 205.876 178.535C209.718 179.218 213.752 179.422 217.638 179.814L239.316 182.006L312.902 189.338L332.202 191.27C336.117 191.664 340.135 191.91 344 192.646C338.42 193.494 332.683 193.867 327.064 194.429L296.741 197.457L206.005 206.545L229.192 240.019C233.986 246.935 238.955 253.787 243.447 260.903C236.815 257.087 230.501 252.387 224.151 248.107L189.133 224.495C185.037 262.411 181.681 300.424 178.108 338.393C177.728 342.429 175.606 369.223 175.072 370.427C174.975 370.647 174.78 370.809 174.634 371C174.386 364.055 173.431 357.046 172.769 350.123L169.158 312.232L163.901 257.354C162.852 246.478 161.983 235.528 160.599 224.691L106.26 261.038C118.591 242.747 131.371 224.758 143.807 206.538C118.332 204.358 92.8685 201.466 67.4237 198.924C46.645 196.848 25.7195 195.196 5 192.638C9.8554 191.687 15.0846 191.496 20.0159 191.002L49.6411 188.05L143.688 178.62C131.798 160.189 118.804 142.296 106.321 124.253C112.851 128.203 119.131 132.82 125.462 137.089C137.078 144.949 148.778 152.682 160.561 160.288L170.24 63.9698L173.332 33.4439C173.851 28.3076 174.207 23.1122 174.903 18Z" fill="white"/>
<path d="M516.52 124.84C515.8 126.2 514.76 126.88 513.4 126.88C512.36 126.88 511 126.16 509.32 124.72C507.72 123.2 505.52 121.56 502.72 119.8C499.92 117.96 496.4 116.28 492.16 114.76C488 113.24 482.84 112.48 476.68 112.48C470.52 112.48 465.08 113.36 460.36 115.12C455.72 116.88 451.8 119.28 448.6 122.32C445.48 125.36 443.08 128.88 441.4 132.88C439.8 136.88 439 141.08 439 145.48C439 151.24 440.2 156 442.6 159.76C445.08 163.52 448.32 166.72 452.32 169.36C456.32 172 460.84 174.24 465.88 176.08C471 177.84 476.24 179.6 481.6 181.36C486.96 183.12 492.16 185.08 497.2 187.24C502.32 189.32 506.88 191.96 510.88 195.16C514.88 198.36 518.08 202.32 520.48 207.04C522.96 211.68 524.2 217.48 524.2 224.44C524.2 231.56 522.96 238.28 520.48 244.6C518.08 250.84 514.56 256.28 509.92 260.92C505.28 265.56 499.6 269.24 492.88 271.96C486.16 274.6 478.48 275.92 469.84 275.92C458.64 275.92 449 273.96 440.92 270.04C432.84 266.04 425.76 260.6 419.68 253.72L423.04 248.44C424 247.24 425.12 246.64 426.4 246.64C427.12 246.64 428.04 247.12 429.16 248.08C430.28 249.04 431.64 250.24 433.24 251.68C434.84 253.04 436.76 254.56 439 256.24C441.24 257.84 443.84 259.36 446.8 260.8C449.76 262.16 453.16 263.32 457 264.28C460.84 265.24 465.2 265.72 470.08 265.72C476.8 265.72 482.8 264.72 488.08 262.72C493.36 260.64 497.8 257.84 501.4 254.32C505.08 250.8 507.88 246.64 509.8 241.84C511.72 236.96 512.68 231.76 512.68 226.24C512.68 220.24 511.44 215.32 508.96 211.48C506.56 207.56 503.36 204.32 499.36 201.76C495.36 199.12 490.8 196.92 485.68 195.16C480.64 193.4 475.44 191.68 470.08 190C464.72 188.32 459.48 186.44 454.36 184.36C449.32 182.28 444.8 179.64 440.8 176.44C436.8 173.16 433.56 169.12 431.08 164.32C428.68 159.44 427.48 153.36 427.48 146.08C427.48 140.4 428.56 134.92 430.72 129.64C432.88 124.36 436.04 119.72 440.2 115.72C444.36 111.64 449.48 108.4 455.56 106C461.72 103.52 468.72 102.28 476.56 102.28C485.36 102.28 493.24 103.68 500.2 106.48C507.24 109.28 513.64 113.56 519.4 119.32L516.52 124.84ZM565.259 99.4V205.84H570.779C571.899 205.84 572.939 205.68 573.899 205.36C574.939 205.04 576.059 204.28 577.259 203.08L625.139 157.6C625.939 156.64 626.819 155.92 627.779 155.44C628.739 154.88 629.939 154.6 631.379 154.6H641.459L588.779 204.64C587.339 206.32 585.779 207.64 584.099 208.6C585.379 209.24 586.459 210 587.339 210.88C588.299 211.68 589.219 212.64 590.099 213.76L645.419 274H635.459C634.339 274 633.299 273.84 632.339 273.52C631.459 273.12 630.619 272.36 629.819 271.24L579.659 217.48C579.019 216.76 578.379 216.16 577.739 215.68C577.179 215.2 576.579 214.84 575.939 214.6C575.299 214.28 574.539 214.08 573.659 214C572.859 213.84 571.859 213.76 570.659 213.76H565.259V274H553.739V99.4H565.259ZM679.8 154.6V274H668.4V154.6H679.8ZM684.72 113.44C684.72 114.88 684.4 116.24 683.76 117.52C683.2 118.72 682.44 119.8 681.48 120.76C680.52 121.72 679.4 122.48 678.12 123.04C676.84 123.6 675.48 123.88 674.04 123.88C672.6 123.88 671.24 123.6 669.96 123.04C668.68 122.48 667.56 121.72 666.6 120.76C665.64 119.8 664.88 118.72 664.32 117.52C663.76 116.24 663.48 114.88 663.48 113.44C663.48 112 663.76 110.64 664.32 109.36C664.88 108 665.64 106.84 666.6 105.88C667.56 104.92 668.68 104.16 669.96 103.6C671.24 103.04 672.6 102.76 674.04 102.76C675.48 102.76 676.84 103.04 678.12 103.6C679.4 104.16 680.52 104.92 681.48 105.88C682.44 106.84 683.2 108 683.76 109.36C684.4 110.64 684.72 112 684.72 113.44ZM730.638 175.48C736.158 168.6 742.518 163.08 749.718 158.92C756.998 154.76 765.078 152.68 773.958 152.68C780.518 152.68 786.278 153.72 791.238 155.8C796.278 157.88 800.438 160.88 803.718 164.8C806.998 168.72 809.478 173.44 811.158 178.96C812.838 184.48 813.678 190.72 813.678 197.68V274H802.158V197.68C802.158 186.48 799.598 177.72 794.478 171.4C789.358 165 781.558 161.8 771.078 161.8C763.318 161.8 756.038 163.8 749.238 167.8C742.518 171.72 736.518 177.2 731.238 184.24V274H719.718V154.6H726.078C728.078 154.6 729.238 155.6 729.558 157.6L730.638 175.48ZM946.921 263.56V274H854.161V104.2H866.521V263.56H946.921ZM1036.21 216.28C1024.85 216.68 1015.05 217.6 1006.81 219.04C998.648 220.4 991.888 222.28 986.528 224.68C981.248 227.08 977.328 229.96 974.768 233.32C972.208 236.6 970.928 240.36 970.928 244.6C970.928 248.6 971.568 252.08 972.848 255.04C974.208 257.92 975.968 260.32 978.128 262.24C980.368 264.08 982.928 265.44 985.808 266.32C988.688 267.2 991.688 267.64 994.808 267.64C999.448 267.64 1003.69 267.16 1007.53 266.2C1011.45 265.16 1015.05 263.76 1018.33 262C1021.69 260.16 1024.81 258 1027.69 255.52C1030.57 253.04 1033.41 250.36 1036.21 247.48V216.28ZM966.008 171.52C972.248 165.28 978.808 160.56 985.688 157.36C992.568 154.16 1000.37 152.56 1009.09 152.56C1015.49 152.56 1021.09 153.6 1025.89 155.68C1030.69 157.68 1034.65 160.6 1037.77 164.44C1040.97 168.2 1043.37 172.8 1044.97 178.24C1046.57 183.6 1047.37 189.6 1047.37 196.24V274H1042.81C1040.41 274 1038.93 272.88 1038.37 270.64L1036.69 255.28C1033.41 258.48 1030.13 261.36 1026.85 263.92C1023.65 266.48 1020.29 268.64 1016.77 270.4C1013.25 272.16 1009.45 273.52 1005.37 274.48C1001.29 275.44 996.808 275.92 991.928 275.92C987.848 275.92 983.888 275.32 980.048 274.12C976.208 272.92 972.768 271.08 969.728 268.6C966.768 266.12 964.368 262.96 962.528 259.12C960.768 255.2 959.888 250.52 959.888 245.08C959.888 240.04 961.328 235.36 964.208 231.04C967.088 226.72 971.608 222.96 977.768 219.76C983.928 216.56 991.808 214 1001.41 212.08C1011.09 210.16 1022.69 209.04 1036.21 208.72V196.24C1036.21 185.2 1033.81 176.72 1029.01 170.8C1024.29 164.8 1017.25 161.8 1007.89 161.8C1002.13 161.8 997.208 162.6 993.128 164.2C989.128 165.8 985.728 167.56 982.928 169.48C980.128 171.4 977.848 173.16 976.088 174.76C974.328 176.36 972.848 177.16 971.648 177.16C970.768 177.16 970.048 176.96 969.488 176.56C968.928 176.16 968.448 175.64 968.048 175L966.008 171.52ZM1096.34 247.96C1100.98 254.84 1106.06 259.68 1111.58 262.48C1117.18 265.2 1123.46 266.56 1130.42 266.56C1137.54 266.56 1143.74 265.28 1149.02 262.72C1154.38 260.16 1158.82 256.52 1162.34 251.8C1165.94 247 1168.62 241.2 1170.38 234.4C1172.14 227.6 1173.02 219.96 1173.02 211.48C1173.02 195 1169.74 182.6 1163.18 174.28C1156.62 165.96 1147.42 161.8 1135.58 161.8C1127.1 161.8 1119.7 163.84 1113.38 167.92C1107.06 172 1101.38 177.68 1096.34 184.96V247.96ZM1096.34 175.36C1101.54 168.32 1107.62 162.8 1114.58 158.8C1121.54 154.72 1129.62 152.68 1138.82 152.68C1146.02 152.68 1152.46 154 1158.14 156.64C1163.82 159.28 1168.62 163.08 1172.54 168.04C1176.54 173 1179.58 179.12 1181.66 186.4C1183.74 193.6 1184.78 201.8 1184.78 211C1184.78 220.68 1183.62 229.52 1181.3 237.52C1178.98 245.44 1175.58 252.24 1171.1 257.92C1166.7 263.52 1161.3 267.88 1154.9 271C1148.5 274.04 1141.18 275.56 1132.94 275.56C1124.46 275.56 1117.22 273.96 1111.22 270.76C1105.3 267.48 1100.18 262.64 1095.86 256.24L1095.02 271C1094.78 273 1093.7 274 1091.78 274H1084.82V99.4H1096.34V175.36ZM1310.85 263.56V274H1218.09V104.2H1230.45V263.56H1310.85ZM1440.7 263.8L1440.46 274H1338.7V104.2H1440.46V114.4H1351.06V183.04H1425.46V193H1351.06V263.8H1440.7ZM1620.15 189.04C1620.15 202.16 1618.19 213.96 1614.27 224.44C1610.35 234.92 1604.83 243.84 1597.71 251.2C1590.59 258.56 1582.03 264.2 1572.03 268.12C1562.11 272.04 1551.15 274 1539.15 274H1477.11V104.2H1539.15C1551.15 104.2 1562.11 106.16 1572.03 110.08C1582.03 114 1590.59 119.64 1597.71 127C1604.83 134.36 1610.35 143.28 1614.27 153.76C1618.19 164.24 1620.15 176 1620.15 189.04ZM1607.43 189.04C1607.43 177.2 1605.79 166.64 1602.51 157.36C1599.23 148.08 1594.59 140.24 1588.59 133.84C1582.59 127.44 1575.39 122.56 1566.99 119.2C1558.59 115.84 1549.31 114.16 1539.15 114.16H1489.47V264.04H1539.15C1549.31 264.04 1558.59 262.36 1566.99 259C1575.39 255.64 1582.59 250.76 1588.59 244.36C1594.59 237.96 1599.23 230.12 1602.51 220.84C1605.79 211.56 1607.43 200.96 1607.43 189.04Z" fill="white"/>
</svg>
