<svg width="162" height="32" viewBox="0 0 162 32" fill="none" xmlns="http://www.w3.org/2000/svg">
<g clip-path="url(#clip0_2272_10731)">
<path d="M33.3799 21.7004L33.3799 20.4651L33.3867 20.4651L33.3867 16.2102C33.3867 15.2302 33.387 14.7398 33.1963 14.3655C33.0286 14.0363 32.7608 13.7686 32.4316 13.6008C32.0573 13.4101 31.567 13.4104 30.5869 13.4104L15.2168 13.4104L15.2168 17.6653C15.2168 18.6452 15.2165 19.1357 15.4072 19.51C15.575 19.8391 15.8427 20.1069 16.1719 20.2747C16.5462 20.4654 17.0365 20.4651 18.0166 20.4651L33.0303 20.4651L33.0303 21.7004L6.13086 21.7004L6.13086 28.7551L30.5869 28.7551C31.567 28.7551 32.0573 28.7554 32.4316 28.5647C32.7608 28.397 33.0285 28.1292 33.1963 27.8C33.387 27.4257 33.3867 26.9353 33.3867 25.9553L33.3867 21.7004L33.3799 21.7004ZM15.2168 9.15552C15.2168 8.17565 15.217 7.6851 15.0264 7.31079C14.8587 6.98164 14.5908 6.71393 14.2617 6.54614C13.8874 6.35541 13.397 6.35474 12.417 6.35474L8.93164 6.35473C7.95162 6.35473 7.46125 6.35541 7.08692 6.54614C6.75782 6.71393 6.48997 6.98165 6.32227 7.31079C6.13167 7.6851 6.13184 8.17566 6.13184 9.15552L6.13184 10.6106C6.13184 11.5901 6.13172 12.0801 6.32227 12.4543C6.48997 12.7835 6.75783 13.0512 7.08691 13.219C7.46125 13.4097 7.95162 13.4104 8.93164 13.4104L15.2168 13.4104L15.2168 9.15552ZM39.7285 7.53442C39.7065 7.11486 39.4608 6.68985 38.9707 5.84106L38.2432 4.5813C37.7532 3.73272 37.5085 3.30819 37.1563 3.07935C36.8463 2.87807 36.4804 2.77973 36.1113 2.79907C35.6918 2.82106 35.2674 3.06603 34.4189 3.55591L31.4004 5.29907C30.5519 5.78897 30.1273 6.03379 29.8984 6.38599C29.6972 6.69588 29.5989 7.06191 29.6182 7.43091C29.6402 7.85047 29.885 8.27548 30.375 9.12427L32.5029 12.8088L37.9463 9.66626C38.795 9.17625 39.2194 8.93071 39.4482 8.57837C39.6493 8.26859 39.7478 7.90323 39.7285 7.53442Z" fill="#F4F4F4"/>
</g>
<path d="M53.08 24.384C52.2 24.384 51.36 24.256 50.56 24C49.76 23.728 49.032 23.304 48.376 22.728C47.72 22.136 47.168 21.36 46.72 20.4L48.976 19.056C49.504 19.984 50.104 20.664 50.776 21.096C51.448 21.528 52.256 21.744 53.2 21.744C54.08 21.744 54.744 21.552 55.192 21.168C55.656 20.784 55.888 20.256 55.888 19.584C55.888 19.184 55.784 18.84 55.576 18.552C55.384 18.248 55.032 17.968 54.52 17.712C54.024 17.44 53.312 17.192 52.384 16.968C51.104 16.648 50.104 16.256 49.384 15.792C48.664 15.312 48.16 14.76 47.872 14.136C47.584 13.496 47.44 12.8 47.44 12.048C47.44 11.12 47.656 10.312 48.088 9.624C48.52 8.936 49.144 8.392 49.96 7.992C50.776 7.592 51.744 7.392 52.864 7.392C54.192 7.392 55.288 7.648 56.152 8.16C57.032 8.672 57.76 9.352 58.336 10.2L56.056 11.712C55.592 11.12 55.08 10.704 54.52 10.464C53.976 10.208 53.408 10.08 52.816 10.08C51.968 10.08 51.32 10.248 50.872 10.584C50.424 10.904 50.2 11.376 50.2 12C50.2 12.528 50.416 12.984 50.848 13.368C51.28 13.752 52.12 14.096 53.368 14.4C54.712 14.736 55.776 15.136 56.56 15.6C57.344 16.048 57.896 16.6 58.216 17.256C58.552 17.896 58.72 18.664 58.72 19.56C58.72 20.472 58.488 21.288 58.024 22.008C57.56 22.728 56.904 23.304 56.056 23.736C55.224 24.168 54.232 24.384 53.08 24.384ZM67.2337 12.024C68.0657 12.024 68.7217 12.16 69.2017 12.432C69.6817 12.704 70.0417 13.08 70.2817 13.56C70.5217 14.024 70.6737 14.552 70.7377 15.144C70.8177 15.72 70.8577 16.32 70.8577 16.944V24H68.0737V16.704C68.0737 15.92 67.9057 15.4 67.5697 15.144C67.2497 14.872 66.8497 14.736 66.3697 14.736C65.9217 14.736 65.4577 14.832 64.9777 15.024C64.5137 15.2 64.0897 15.448 63.7057 15.768C63.3217 16.072 63.0097 16.424 62.7697 16.824L62.5537 15.312H63.1537V24H60.3697V12.288H62.4577L63.0337 14.424L62.2177 14.448C62.6657 13.952 63.1537 13.528 63.6817 13.176C64.2097 12.808 64.7697 12.528 65.3617 12.336C65.9697 12.128 66.5937 12.024 67.2337 12.024ZM78.0587 24.24C76.9067 24.24 75.8987 23.992 75.0347 23.496C74.1707 22.984 73.4907 22.272 72.9947 21.36C72.5147 20.448 72.2747 19.384 72.2747 18.168C72.2747 16.936 72.5147 15.864 72.9947 14.952C73.4907 14.024 74.1707 13.304 75.0347 12.792C75.8987 12.28 76.9067 12.024 78.0587 12.024C79.2267 12.024 80.2427 12.288 81.1067 12.816C81.9867 13.328 82.6667 14.048 83.1467 14.976C83.6267 15.888 83.8667 16.944 83.8667 18.144C83.8667 18.288 83.8587 18.432 83.8427 18.576C83.8427 18.72 83.8347 18.848 83.8187 18.96H74.7227V16.728H81.7547L81.1787 18C81.1787 16.896 80.9227 15.992 80.4107 15.288C79.8987 14.584 79.1227 14.232 78.0827 14.232C77.1387 14.232 76.3867 14.528 75.8267 15.12C75.2827 15.696 75.0107 16.464 75.0107 17.424V18.696C75.0107 19.688 75.2827 20.48 75.8267 21.072C76.3867 21.648 77.1547 21.936 78.1307 21.936C79.0107 21.936 79.6907 21.752 80.1707 21.384C80.6667 21.016 81.0907 20.56 81.4427 20.016L83.4347 21.216C82.9067 22.208 82.2027 22.96 81.3227 23.472C80.4427 23.984 79.3547 24.24 78.0587 24.24ZM89.0796 24.336C88.1836 24.336 87.4076 24.176 86.7516 23.856C86.1116 23.52 85.6156 23.056 85.2636 22.464C84.9116 21.872 84.7356 21.168 84.7356 20.352C84.7356 19.552 84.9116 18.856 85.2636 18.264C85.6316 17.672 86.1436 17.208 86.7996 16.872C87.4556 16.52 88.2156 16.344 89.0796 16.344C90.2156 16.344 91.1276 16.6 91.8156 17.112C92.5196 17.624 92.9996 18.344 93.2556 19.272L91.8636 19.176V16.272C91.8636 15.792 91.6956 15.36 91.3596 14.976C91.0396 14.592 90.4876 14.4 89.7036 14.4C89.2556 14.4 88.7596 14.456 88.2156 14.568C87.6716 14.664 87.1116 14.848 86.5356 15.12L85.6956 13.056C86.3676 12.72 87.0716 12.464 87.8076 12.288C88.5596 12.112 89.3036 12.024 90.0396 12.024C91.0796 12.024 91.9356 12.216 92.6076 12.6C93.2956 12.968 93.8076 13.472 94.1436 14.112C94.4796 14.752 94.6476 15.488 94.6476 16.32V24H92.5116L91.8876 21.816L93.2556 21.408C92.9836 22.368 92.4796 23.096 91.7436 23.592C91.0236 24.088 90.1356 24.336 89.0796 24.336ZM89.7276 22.056C90.3676 22.056 90.8796 21.904 91.2636 21.6C91.6636 21.296 91.8636 20.88 91.8636 20.352C91.8636 19.792 91.6636 19.368 91.2636 19.08C90.8796 18.776 90.3676 18.624 89.7276 18.624C89.0876 18.624 88.5676 18.776 88.1676 19.08C87.7836 19.368 87.5916 19.792 87.5916 20.352C87.5916 20.88 87.7836 21.296 88.1676 21.6C88.5676 21.904 89.0876 22.056 89.7276 22.056ZM98.9008 18.096V17.712L103.893 12.288H107.109L101.541 18.456L101.349 17.04L107.181 24H103.893L98.9008 18.096ZM96.9088 7.656H99.6448V24H96.9088V7.656ZM112.311 24L106.575 7.656H109.407L114.447 22.08H113.703L118.743 7.656H121.575L115.839 24H112.311ZM124.611 24.336C123.715 24.336 122.939 24.176 122.283 23.856C121.643 23.52 121.147 23.056 120.795 22.464C120.443 21.872 120.267 21.168 120.267 20.352C120.267 19.552 120.443 18.856 120.795 18.264C121.163 17.672 121.675 17.208 122.331 16.872C122.987 16.52 123.747 16.344 124.611 16.344C125.747 16.344 126.659 16.6 127.347 17.112C128.051 17.624 128.531 18.344 128.787 19.272L127.395 19.176V16.272C127.395 15.792 127.227 15.36 126.891 14.976C126.571 14.592 126.019 14.4 125.235 14.4C124.787 14.4 124.291 14.456 123.747 14.568C123.203 14.664 122.643 14.848 122.067 15.12L121.227 13.056C121.899 12.72 122.603 12.464 123.339 12.288C124.091 12.112 124.835 12.024 125.571 12.024C126.611 12.024 127.467 12.216 128.139 12.6C128.827 12.968 129.339 13.472 129.675 14.112C130.011 14.752 130.179 15.488 130.179 16.32V24H128.043L127.419 21.816L128.787 21.408C128.515 22.368 128.011 23.096 127.275 23.592C126.555 24.088 125.667 24.336 124.611 24.336ZM125.259 22.056C125.899 22.056 126.411 21.904 126.795 21.6C127.195 21.296 127.395 20.88 127.395 20.352C127.395 19.792 127.195 19.368 126.795 19.08C126.411 18.776 125.899 18.624 125.259 18.624C124.619 18.624 124.099 18.776 123.699 19.08C123.315 19.368 123.123 19.792 123.123 20.352C123.123 20.88 123.315 21.296 123.699 21.6C124.099 21.904 124.619 22.056 125.259 22.056ZM134.679 24.12C134.215 24.12 133.791 24.016 133.407 23.808C133.023 23.584 132.719 23.264 132.495 22.848C132.271 22.416 132.159 21.872 132.159 21.216V7.656H134.895V20.232C134.895 20.76 135.015 21.112 135.255 21.288C135.495 21.464 135.775 21.552 136.095 21.552V23.928C135.903 23.992 135.679 24.04 135.423 24.072C135.183 24.104 134.935 24.12 134.679 24.12ZM141.38 24.264C140.5 24.264 139.796 24.128 139.268 23.856C138.756 23.584 138.372 23.216 138.116 22.752C137.86 22.288 137.684 21.76 137.588 21.168C137.508 20.576 137.468 19.96 137.468 19.32V12.288H140.252V19.584C140.252 20.352 140.42 20.872 140.756 21.144C141.108 21.4 141.516 21.528 141.98 21.528C142.444 21.528 142.9 21.44 143.348 21.264C143.812 21.088 144.236 20.84 144.62 20.52C145.02 20.2 145.332 19.848 145.556 19.464L145.772 20.952H145.172V12.288H147.956V24H145.868L145.292 21.84H146.084C145.684 22.32 145.228 22.744 144.716 23.112C144.204 23.48 143.668 23.768 143.108 23.976C142.548 24.168 141.972 24.264 141.38 24.264ZM155.277 24.24C154.125 24.24 153.117 23.992 152.253 23.496C151.389 22.984 150.709 22.272 150.213 21.36C149.733 20.448 149.493 19.384 149.493 18.168C149.493 16.936 149.733 15.864 150.213 14.952C150.709 14.024 151.389 13.304 152.253 12.792C153.117 12.28 154.125 12.024 155.277 12.024C156.445 12.024 157.461 12.288 158.325 12.816C159.205 13.328 159.885 14.048 160.365 14.976C160.845 15.888 161.085 16.944 161.085 18.144C161.085 18.288 161.077 18.432 161.061 18.576C161.061 18.72 161.053 18.848 161.037 18.96H151.941V16.728H158.973L158.397 18C158.397 16.896 158.141 15.992 157.629 15.288C157.117 14.584 156.341 14.232 155.301 14.232C154.357 14.232 153.605 14.528 153.045 15.12C152.501 15.696 152.229 16.464 152.229 17.424V18.696C152.229 19.688 152.501 20.48 153.045 21.072C153.605 21.648 154.373 21.936 155.349 21.936C156.229 21.936 156.909 21.752 157.389 21.384C157.885 21.016 158.309 20.56 158.661 20.016L160.653 21.216C160.125 22.208 159.421 22.96 158.541 23.472C157.661 23.984 156.573 24.24 155.277 24.24Z" fill="#F4F4F4"/>
<defs>
<clipPath id="clip0_2272_10731">
<rect y="32" width="32" height="46" rx="7.5" transform="rotate(-90 0 32)" fill="white"/>
</clipPath>
</defs>
</svg>
