<svg width="1024" height="1024" viewBox="0 0 1024 1024" fill="none" xmlns="http://www.w3.org/2000/svg">
<path d="M511.288 150C530.068 155.629 553.311 165.101 571.994 172.148L675.331 210.955L877.008 286.573C891.681 292.119 959.199 315.098 967.873 322.996C967.51 332.493 899.656 355.178 888.652 358.977C888.772 389.848 889.809 426.02 888.805 456.472L895.271 461.045C902.081 466.103 906.127 469.724 910.416 477.214C910.591 485.377 910.398 497.986 911.021 505.914C914.267 547.305 908.599 549.43 875.801 571.8C862.238 563.535 847.349 555.57 837.958 542.732C836.581 522.696 837.28 499.028 837.814 478.708C839.926 475.342 841.897 472.175 844.189 468.913C848.673 464.872 851.116 463.263 856.185 459.859C861.686 453.158 859.008 380.603 858.953 367.325C842.294 375.277 821.489 382.11 803.987 388.949C762.507 405.158 719.854 419.367 678.694 436.256C624.645 453.687 562.219 482.238 509.143 497.834C497.319 494.557 479.611 487.445 467.744 483.062L384.995 452.034L154.217 365.771C124.005 354.524 91.7754 341.144 61.6392 330.794C57.2436 327.842 57.3139 328.924 55.9165 324.93C57.6659 321.728 58.7818 320.24 62.7551 318.738C84.8821 310.374 107.744 301.64 129.793 293.235L279.035 236.818L423.002 182.769C449.981 172.481 484.096 157.527 511.288 150Z" fill="#1E4270"/>
<path d="M511.288 150C530.068 155.629 553.311 165.101 571.994 172.148L675.331 210.955L877.008 286.573C891.681 292.119 959.199 315.098 967.873 322.996C967.51 332.493 899.656 355.178 888.652 358.977C888.772 389.848 889.809 426.02 888.805 456.472L886.631 455.304C883.612 437.145 886.727 380.556 886.584 361.039C886.516 351.818 960.124 336.451 962.695 322.498C959.942 318.657 886.579 292.815 876.463 289.029L671.632 212.535L568.273 173.475C550.26 166.686 529.494 158.265 511.325 152.625C497.009 155.976 465.619 169.246 451.246 174.82L352.283 212.212C279.971 238.805 207.878 265.99 136.011 293.764C125.924 297.688 60.4686 320.18 58.6566 325.285L61.6392 330.794C57.2436 327.842 57.3139 328.924 55.9165 324.93C57.6659 321.728 58.7818 320.24 62.7551 318.738C84.8821 310.374 107.744 301.64 129.793 293.235L279.035 236.818L423.002 182.769C449.981 172.481 484.096 157.527 511.288 150Z" fill="#0B1526"/>
<path d="M856.185 459.865C851.078 467.176 845.759 471.652 840.769 478.585C839.878 533.739 827.113 537.506 875.113 568.532C923.844 539.994 907.328 528.209 908.055 477.589C904.799 473.086 896.437 464.211 895.272 461.051C902.082 466.109 906.128 469.731 910.417 477.221C910.592 485.384 910.399 497.992 911.022 505.921C914.268 547.312 908.6 549.437 875.802 571.806C862.239 563.542 847.35 555.577 837.959 542.739C836.582 522.703 837.281 499.035 837.815 478.715C839.927 475.349 841.898 472.181 844.19 468.92C848.674 464.879 851.117 463.27 856.185 459.865Z" fill="#0B1526"/>
<path d="M493.47 872.104C479.057 868.061 461.717 860.805 447.498 855.416L362.809 823.092L268.419 787.695C240.974 777.219 208.134 767.617 187.746 745.879C175.362 732.825 166.857 716.585 163.181 698.971C157.388 670.941 160.952 600.417 160.285 567.4C159.37 521.994 160.765 471.545 160.084 425.664C160.022 421.423 159.847 419.259 162.352 416.949L168.964 417.851C178.806 423.808 207.422 431.215 219.423 435.243C274.846 453.853 331.583 470.398 384.618 495.297C412.259 508.272 444.445 525.735 444.439 560.447C444.437 589.642 444.468 618.772 444.507 647.959C444.413 659.475 445.855 696.436 444.83 704.925C449.396 728.056 454.313 745.096 475.783 759.06C490.779 768.67 509.094 771.619 526.351 767.208C549.396 761.459 565.041 742.281 572.068 720.448C570.037 769.111 555.883 826.641 523.194 863.933L523.906 865.094C511.6 872.37 507.58 875.567 493.47 872.104Z" fill="#63BB58"/>
<path d="M493.469 872.107C463.471 831.128 440.082 755.189 444.83 704.928C449.395 728.059 454.312 745.099 475.782 759.063C490.778 768.673 509.094 771.622 526.351 767.211C549.395 761.462 565.041 742.284 572.067 720.451C570.036 769.114 555.882 826.644 523.193 863.936L523.905 865.097C511.599 872.373 507.579 875.57 493.469 872.107Z" fill="#1E4270"/>
<path d="M572.068 720.452L572.467 718.311C575.689 700.549 574.873 677.4 574.873 659.009L574.727 583.665C574.592 548.455 570.352 532.431 604.013 510.813C649.044 481.889 701.761 464.614 752.906 449.873C772.366 444.361 794.464 440.31 812.678 434.506C811.533 456.002 812.167 481.644 812.26 503.38L812.764 615.842C812.831 639.09 813.882 684.061 808.655 704.754C804.194 722.861 794.388 739.205 780.513 751.665C761.421 768.93 731.837 779.017 707.786 788.702L601.805 830.899C581.96 838.76 550.084 850.296 532.601 860.868L523.906 865.097L523.194 863.937C555.883 826.644 570.037 769.115 572.068 720.452Z" fill="#4EB1F9"/>
</svg>
