<svg width="688" height="245" viewBox="0 0 688 245" fill="none" xmlns="http://www.w3.org/2000/svg">
<path d="M56.987 21.3664C61.4822 20.594 69.3187 20.9802 74.0728 20.9808L105.684 20.9994L144.87 20.9808C151.945 20.9668 163.893 20.6022 170.417 21.6831C177.266 22.8399 183.742 25.6084 189.311 29.7605C207.549 43.4572 205.913 60.9811 205.902 80.916L205.862 119.998L205.872 159.52C205.875 167.446 206.33 175.984 205.202 183.796C202.355 203.516 187.07 216.822 167.817 219.379C147.781 220.618 120.889 219.792 100.379 219.801L73.9159 219.836C67.0174 219.841 60.0553 220.061 53.2583 218.983C34.2259 215.965 20.1221 200.757 18.5541 181.512C17.9013 173.5 18.1032 165.663 18.0985 157.611L18.0886 117.181L18.0997 80.7042C18.1026 75.4122 18.1224 70.1015 18.1668 64.8142C18.3622 41.3455 33.4466 23.8648 56.987 21.3664Z" fill="#010101"/>
<path d="M49.2351 53.0507C65.1228 68.495 82.0167 86.8747 97.5234 103C106.611 111.748 116.428 123.005 125.451 131.112C144.227 150.383 163.293 169.254 181.899 188.695C173.556 193.892 169.962 192.81 160.767 192.698C134.167 192.374 132.243 196.97 113.149 177.395L95.7454 159.533C89.7867 166.522 72.016 184.533 65.2435 190.685C49.9893 189.078 49.4638 179.823 49.5734 166.612C49.6073 162.552 49.5483 158.227 49.539 154.146L49.5215 113.272C48.6996 93.7965 49.9905 72.7533 49.2351 53.0507Z" fill="#03ACFD"/>
<path d="M49.5215 113.272C51.891 114.853 64.925 128.04 67.3797 130.689C76.0165 140.012 87.3973 150.18 95.7454 159.533C89.7867 166.522 72.016 184.533 65.2435 190.685C49.9893 189.078 49.4638 179.823 49.5734 166.612C49.6073 162.552 49.5483 158.227 49.539 154.146L49.5215 113.272Z" fill="#00337C"/>
<path d="M128.919 70.8377C133.321 66.3693 148.555 49.8878 152.243 47.6992C154.792 46.2047 157.684 45.3967 160.639 45.3536C164.702 45.2503 168.631 46.8201 171.505 49.6953C177.079 55.216 176.132 61.7435 176.242 68.9798C176.276 71.2262 176.05 77.1645 174.85 79.338C170.859 86.5632 161.705 93.7172 156.015 100.053C155.854 100.233 155.266 100.709 155.105 100.842C153.443 103.188 147.541 108.916 145.214 111.257L125.451 131.112C116.428 123.005 106.611 111.748 97.5234 103L128.919 70.8377Z" fill="url(#paint0_linear_1_71)"/>
<path d="M128.919 70.8377C133.321 66.3693 148.555 49.8878 152.243 47.6992C154.792 46.2047 157.684 45.3967 160.639 45.3536C164.702 45.2503 168.631 46.8201 171.505 49.6953C177.079 55.216 176.132 61.7435 176.242 68.9798C176.276 71.2262 176.05 77.1645 174.85 79.338C170.859 86.5632 161.705 93.7172 156.015 100.053C155.854 100.233 155.266 100.709 155.105 100.842C155.409 100.054 155.721 99.3072 156.168 98.5874C153.725 95.5401 145.206 91.0712 142.092 86.1752C142.136 86.2435 127.485 69.916 128.919 70.8377Z" fill="url(#paint1_linear_1_71)"/>
<path d="M439.322 36.8282C447.522 36.6514 455.848 36.8229 464.048 36.7237C482.142 36.505 499.094 36.2116 513.403 49.4807C522.509 57.9256 526.587 69.8758 526.867 82.145C527.193 96.2646 523.314 106.772 513.596 117.104C498.377 130.544 484.365 130.741 465.447 130.726L439.336 130.677L439.322 36.8282ZM457.364 117.427C471.8 117.49 486.465 118.811 497.927 108.529C510.102 95.431 510.376 71.6946 497.414 59.0018C487.602 49.3902 470.296 51.3748 457.336 51.3835L457.364 117.427Z" fill="white"/>
<path d="M541.351 36.8089C548.368 36.7786 556.22 36.582 563.168 36.7786C571.912 53.4748 579.822 70.8598 588.21 87.7514C589.575 90.4948 590.975 93.3847 592.171 96.1975C601.615 77.6959 611.829 55.7532 620.719 36.8072C627.772 36.7611 634.818 36.7535 641.865 36.7838L641.894 130.703L624.785 130.66L624.797 71.7949C624.861 69.3484 624.89 66.7788 625.007 64.3469L621.478 71.9104C613.533 87.4982 606.573 103.935 598.378 119.663C594.323 119.769 590.042 119.724 585.964 119.747C577.243 102.975 569.228 84.8406 560.315 68.3655L559.522 66.6313L558.781 65.1636L558.39 65.5235C558.238 70.1307 558.25 74.893 558.297 79.5078C558.466 96.5498 558.057 113.681 558.302 130.715L541.345 130.672L541.351 36.8089Z" fill="white"/>
<path d="M275.214 36.729C291.814 36.6835 311.485 34.4855 324.555 46.7063C336.137 57.5359 335.844 79.191 324.758 90.2475C314.518 100.46 301.254 102.184 287.614 102.174L276.57 102.223L276.543 130.7L258.26 130.69L258.214 36.8305C263.705 36.6613 269.685 36.7535 275.214 36.729ZM276.569 86.4348C287.557 86.4693 299.874 88.0373 308.708 81.2805C315.34 74.2653 315.927 63.4217 308.712 56.4941C301.813 49.8697 285.862 51.3543 276.566 51.415L276.569 86.4348Z" fill="white"/>
<path d="M402.166 36.8398C409.71 36.6864 417.255 36.6841 424.799 36.8346C414.481 50.0027 402.525 62.5199 391.886 75.4746C390.154 77.5839 388.148 79.9097 386.291 81.9064C400.17 97.2317 413.32 115.156 426.949 130.684L403.309 130.713C392.818 117.664 380.094 103.358 370.295 90.3286C368.457 92.5307 366.336 94.9567 364.624 97.2224L364.693 130.687L345.976 130.669L345.899 36.8404C352.141 36.7232 358.384 36.7086 364.627 36.7955C364.617 48.0042 364 68.4798 364.761 78.9297L364.721 80.1313L365.327 80.0666C367.127 78.5598 370.563 74.4047 371.756 72.3567C375.187 68.8992 379.222 63.8406 382.42 60.0536C388.946 52.2678 395.528 44.5299 402.166 36.8398Z" fill="white"/>
<path d="M468.254 160.007C479.996 159.909 499.368 157.981 508.159 166.254C517.726 175.256 517.02 191.105 508.474 200.533C498.336 209.262 481.495 207.12 468.223 206.998L468.254 160.007ZM476.904 199.606C485.578 199.656 494.573 200.681 501.661 195.107C507.535 188.829 508.159 178.354 501.737 172.111C496.107 166.638 484.482 167.257 476.898 167.373C476.894 177.952 476.706 189.074 476.904 199.606Z" fill="#03ACFD"/>
<path d="M608.323 158.853C621.909 157.066 634.387 166.591 636.253 180.171C638.114 193.751 628.658 206.285 615.096 208.223C601.422 210.176 588.77 200.629 586.892 186.942C585.013 173.255 594.632 160.653 608.323 158.853ZM615.889 199.362C624.598 196.9 629.673 187.865 627.258 179.146C624.838 170.427 615.831 165.302 607.104 167.679C598.313 170.071 593.145 179.157 595.583 187.937C598.016 196.716 607.128 201.84 615.889 199.362Z" fill="#03ACFD"/>
<path d="M276.312 159.175C283.859 158.604 290.019 160.202 296.467 163.959C295.424 166.337 294.386 169.095 293.403 171.531C287.904 168.003 270.34 163.425 268.616 172.508C270.187 180.78 297.659 177.803 297.653 192.085C297.649 204.918 287.985 208.018 276.972 208.07C269.956 207.891 263.486 205.715 258.005 201.341C259.146 199.228 260.354 196.556 261.421 194.36C267.528 198.486 281.301 203.948 287.884 197.081C293.442 191.284 281.128 187.851 277.158 186.939C271.287 185.584 260.341 182.53 259.783 174.994C258.985 164.229 267.94 160.491 276.312 159.175Z" fill="#03ACFD"/>
<path d="M428.786 159.973L437.265 159.967L437.276 167.683C437.345 175.37 437.651 183.134 436.976 190.788C435.372 208.964 410.352 213.319 399.012 201.817C396.601 199.359 394.885 196.304 394.042 192.965C392.719 187.783 393.223 166.501 393.243 159.973L401.633 159.969C401.595 167.893 401.568 175.832 401.544 183.76C401.525 190.619 403.61 197.6 411.06 199.406C418.452 201.528 427.288 197.686 428.325 189.408C429.466 180.306 428.868 169.276 428.786 159.973Z" fill="#03ACFD"/>
<path d="M323.407 159.975L364.571 159.965L364.547 167.34L348.186 167.349C347.982 174.608 348.104 182.442 348.09 189.744L348.172 207.07C345.351 207.023 342.486 207.036 339.66 207.021L339.661 167.309L323.404 167.333L323.407 159.975Z" fill="#03ACFD"/>
<path d="M544.95 159.977L553.478 159.944C553.484 165.805 554.295 205.132 553 207.051L545.02 207.014C545.037 191.491 545.242 175.457 544.95 159.977Z" fill="#03ACFD"/>
<defs>
<linearGradient id="paint0_linear_1_71" x1="147.476" y1="86.1745" x2="107.03" y2="114.477" gradientUnits="userSpaceOnUse">
<stop stop-color="#00B5FF"/>
<stop offset="1" stop-color="#005DAE"/>
</linearGradient>
<linearGradient id="paint1_linear_1_71" x1="131.778" y1="78.49" x2="177.311" y2="66.6753" gradientUnits="userSpaceOnUse">
<stop stop-color="#00ACFE"/>
<stop offset="1" stop-color="#00C8FF"/>
</linearGradient>
</defs>
</svg>
